<?xml version="1.0" encoding="utf-8"?>
<!-- Generator: Adobe Illustrator 26.1.0, SVG Export Plug-In . SVG Version: 6.00 Build 0)  -->
<svg version="1.1" id="Layer_1" xmlns="http://www.w3.org/2000/svg" xmlns:xlink="http://www.w3.org/1999/xlink" x="0px" y="0px"
	 viewBox="0 0 3000 2000" style="enable-background:new 0 0 3000 2000;" xml:space="preserve">
<style type="text/css">
	.st0{fill:#FF5517;}
</style>
<g>
	<path class="st0" d="M2499.75,1110.76c-0.26-0.17-0.26-0.3-0.13-0.56c1.75-3.46,2.39-7.14,1.7-10.94
		c-1.27-7.03-5.41-11.74-12.08-14.24c-1.03-0.39-2.11-0.58-3.18-0.81c-0.13-0.18-0.34-0.15-0.51-0.16
		c-0.74-0.03-1.48-0.13-2.23-0.13c-4.67,0.01-9.35,0-14.02,0.01c-0.25,0-0.5-0.01-0.74,0.02c-0.59,0.06-1.03,0.47-1.06,0.96
		c-0.03,0.09-0.05,0.18-0.08,0.28c-0.03,0.02-0.05,0.05-0.06,0.08c0,0-0.01,0.01-0.01,0.01c-0.04,0.08-0.05,0.18-0.05,0.27
		c0,1.94-0.01,3.88,0.01,5.82c0.01,0.64,0.44,1.13,1.01,1.26c1.46,0.83,2.92,1.66,4.37,2.5c8.77,5.07,17.53,10.14,26.31,15.2
		c0.34,0.2,0.36,0.34,0.17,0.67c-1.82,3.11-4.32,5.5-7.52,7.16c-0.27,0.14-0.45,0.07-0.68-0.06c-7.04-4.08-14.09-8.16-21.13-12.24
		c-0.36-0.21-0.72-0.38-1.15-0.36c-0.29-0.1-0.54,0.01-0.77,0.18c-0.46,0.33-0.62,0.8-0.62,1.34c0,3.9,0,7.8,0,11.7
		c0,0.19-0.02,0.39,0.19,0.5v0c-0.02,0.17,0.05,0.31,0.14,0.45c0.3,0.48,0.77,0.53,1.26,0.53c4.51,0,9.03,0,13.54,0
		c1.31,0,2.63,0.06,3.93-0.19c0.56-0.11,1.17-0.04,1.66-0.43c1.01-0.34,2.04-0.61,2.99-1.1c0.24-0.12,0.42-0.09,0.64,0.04
		c0.85,0.51,1.71,1.01,2.58,1.49c2.57,1.44,5.8,0.6,7.29-1.88C2503.04,1115.58,2502.27,1112.34,2499.75,1110.76z"/>
</g>
</svg>
